<?xml version="1.0" standalone="no"?>
<!DOCTYPE svg PUBLIC "-//W3C//DTD SVG 20010904//EN"
 "http://www.w3.org/TR/2001/REC-SVG-20010904/DTD/svg10.dtd">
<svg version="1.0" xmlns="http://www.w3.org/2000/svg"
 width="3500.000000pt" height="574.000000pt" viewBox="0 0 3500.000000 574.000000"
 preserveAspectRatio="xMidYMid meet">

<g transform="translate(0.000000,574.000000) scale(0.100000,-0.100000)"
fill="#000000" stroke="none">
<path d="M17697 5350 c-86 -132 -230 -235 -374 -265 -158 -34 -402 -7 -1103
120 -640 116 -947 119 -1248 13 -179 -63 -316 -150 -457 -292 -200 -201 -335
-454 -425 -799 -16 -61 -28 -112 -27 -113 9 -7 68 -34 75 -34 6 0 33 47 60
104 137 280 333 488 555 591 115 53 216 76 358 82 131 6 299 -3 299 -16 0 -4
-42 -41 -92 -81 -512 -410 -800 -868 -898 -1430 -28 -158 -38 -451 -21 -600
42 -365 168 -676 381 -935 72 -87 235 -246 315 -307 228 -173 503 -281 808
-319 138 -16 404 -6 529 20 527 113 996 494 1238 1005 66 139 150 388 150 445
0 10 -77 38 -83 30 -2 -2 -32 -53 -66 -114 -182 -323 -424 -568 -696 -707 -99
-50 -241 -108 -266 -108 -5 0 -9 551 -9 1450 l0 1450 28 -7 c15 -4 106 -7 202
-7 205 0 277 15 425 88 242 120 394 332 450 629 23 119 21 130 -20 150 -20 9
-39 17 -43 17 -4 0 -24 -27 -45 -60z m-2060 -1910 c-4 -1176 -4 -1177 -58
-1281 -33 -61 -104 -147 -149 -179 l-28 -20 -82 92 c-329 376 -468 825 -420
1353 51 550 303 1045 652 1278 l83 56 3 -107 c2 -59 1 -595 -1 -1192z m921
1115 l22 -5 0 -1469 0 -1468 -88 -12 c-206 -26 -412 -7 -584 55 -91 33 -245
110 -320 162 l-58 38 200 193 c223 215 346 356 390 446 37 75 66 198 79 339 7
68 11 433 11 951 l0 842 163 -33 c89 -19 172 -36 185 -39z"/>
<path d="M2401 4889 c-326 -259 -596 -467 -600 -462 -5 4 -16 40 -26 78 -101
394 -326 703 -582 802 -98 37 -253 44 -351 14 -215 -65 -359 -299 -417 -676
-27 -184 -30 -163 23 -170 26 -4 54 -9 62 -11 13 -3 19 16 33 103 36 227 122
332 262 321 191 -16 337 -219 440 -613 72 -275 105 -527 140 -1065 l7 -95 -49
47 c-169 162 -340 206 -500 128 -70 -35 -154 -119 -201 -202 -53 -93 -54 -98
-17 -141 l32 -37 59 35 c75 45 126 59 189 50 140 -18 250 -117 335 -298 56
-118 74 -228 66 -392 -15 -311 -121 -632 -345 -1039 l-71 -130 31 -47 30 -48
92 59 c322 202 612 284 838 236 122 -26 233 -96 359 -227 l65 -67 95 60 c453
286 780 314 1053 91 37 -31 88 -78 112 -105 l44 -49 152 148 c83 81 217 219
296 305 714 775 1049 1412 1105 2103 32 393 -62 840 -273 1308 -49 109 -169
339 -225 432 -11 18 -14 17 -50 -12 -432 -335 -1158 -883 -1163 -877 -4 5 -21
47 -38 94 -52 146 -124 309 -208 475 -81 160 -190 345 -203 345 -4 0 -274
-212 -601 -471z m272 -149 c113 -205 252 -598 306 -867 30 -145 30 -142 -37
-185 -85 -54 -167 -92 -262 -123 -71 -23 -107 -28 -225 -32 -126 -4 -150 -2
-238 21 -54 14 -145 48 -201 76 l-103 50 -11 143 c-7 79 -22 197 -33 263 -12
65 -23 131 -23 145 -1 23 49 67 374 331 l375 306 21 -32 c11 -17 37 -60 57
-96z m1657 -75 c114 -236 196 -521 235 -819 22 -168 23 -160 -32 -184 -177
-75 -333 -106 -508 -99 -145 5 -247 30 -371 89 l-69 33 -7 95 c-10 144 -37
324 -64 429 -13 52 -23 96 -21 97 1 1 166 126 367 278 l364 276 34 -58 c18
-31 50 -93 72 -137z m-1313 -1312 c-4 -163 -10 -238 -31 -349 -28 -155 -92
-414 -105 -427 -5 -5 -31 5 -58 22 -84 52 -254 129 -348 158 -82 25 -104 27
-240 27 -132 0 -162 -4 -250 -28 -55 -15 -119 -36 -142 -46 -24 -10 -43 -17
-43 -15 0 2 13 59 30 127 44 183 70 363 77 544 l6 161 43 -29 c57 -38 139 -74
232 -101 65 -18 101 -22 232 -21 140 0 164 3 245 28 107 33 221 81 290 124 28
17 54 31 59 31 5 1 6 -91 3 -206z m877 82 c49 -8 115 -15 146 -15 79 0 264 33
385 68 55 16 113 33 129 36 l29 7 -6 -128 c-5 -125 -49 -411 -88 -583 -27
-117 -61 -231 -68 -228 -237 118 -331 154 -480 184 -105 21 -278 15 -396 -14
-44 -11 -94 -22 -111 -25 l-31 -6 40 102 c70 178 137 497 137 651 l0 43 113
-38 c61 -21 152 -45 201 -54z m98 -804 c43 -11 109 -33 148 -50 64 -27 230
-118 230 -127 0 -2 -30 -68 -66 -146 -79 -172 -164 -329 -250 -460 l-63 -97
-48 15 c-150 46 -219 58 -338 58 -145 0 -257 -22 -489 -98 -182 -60 -265 -99
-453 -214 -73 -44 -133 -78 -133 -76 0 2 49 59 108 127 335 379 453 542 621
858 l61 117 68 30 c85 38 188 69 267 82 85 13 247 4 337 -19z m-1556 -1 c91
-23 253 -100 336 -160 l57 -41 -34 -95 c-60 -166 -156 -376 -241 -530 l-34
-61 -82 15 c-119 20 -335 19 -428 -2 -158 -35 -297 -90 -548 -216 -155 -78
-251 -121 -247 -112 3 9 44 80 90 157 96 160 236 446 320 650 107 263 103 256
181 297 81 42 195 84 279 103 94 21 258 18 351 -5z"/>
<path d="M26101 5242 c-71 -113 -254 -298 -371 -374 -225 -147 -513 -252 -832
-303 l-108 -18 0 -237 0 -237 -37 -7 c-21 -3 -60 -6 -87 -6 -141 0 -367 -54
-481 -114 -75 -39 -176 -138 -244 -238 -50 -76 -136 -239 -181 -346 l-23 -53
34 -35 c18 -18 36 -34 40 -34 4 0 42 36 85 81 207 213 388 282 797 303 l97 5
0 -1077 c-1 -1052 -7 -1380 -31 -1492 -12 -60 -45 -124 -79 -155 -22 -20 -22
-20 -63 4 -244 137 -523 261 -651 287 -248 52 -466 -145 -561 -509 -13 -50
-25 -107 -27 -126 -3 -33 -1 -34 50 -52 50 -17 53 -17 59 -1 24 67 66 145 97
179 93 103 176 87 538 -107 l168 -89 552 273 c687 340 885 457 1046 616 146
146 214 335 242 675 5 66 10 447 10 848 l0 727 278 0 278 0 72 213 c40 116 72
215 72 220 0 4 -157 7 -350 7 l-350 0 0 310 c0 171 2 310 5 310 2 0 30 -11 60
-25 346 -153 628 -131 822 63 78 78 133 170 172 287 30 92 65 285 53 297 -4 3
-23 9 -43 13 -34 6 -36 5 -74 -52 -128 -193 -297 -274 -475 -229 -115 29 -319
139 -445 240 -22 18 -45 35 -50 38 -6 3 -35 -33 -64 -80z m-474 -1969 c-4
-1349 -4 -1365 -47 -1538 -55 -221 -218 -432 -492 -636 -200 -149 -202 -149
-94 -5 207 276 261 401 297 701 9 71 14 465 18 1379 l6 1279 150 57 c83 32
154 58 158 59 4 1 6 -583 4 -1296z"/>
<path d="M27472 4129 c-250 -49 -392 -308 -392 -716 l0 -133 38 0 39 0 11 113
c20 205 83 311 211 355 49 17 196 14 353 -7 113 -16 157 -17 254 -10 64 5 118
8 120 6 2 -2 -22 -21 -53 -43 -123 -83 -303 -236 -413 -351 -233 -241 -355
-477 -407 -783 -23 -140 -21 -402 5 -550 109 -609 549 -979 1109 -930 295 26
496 123 808 391 l113 97 6 -67 c20 -196 46 -269 129 -358 33 -35 79 -77 101
-93 l41 -27 196 181 197 181 -22 38 c-13 24 -26 36 -36 33 -116 -38 -146 -31
-182 43 l-23 46 0 975 c0 894 1 980 17 1030 21 66 69 148 153 262 l63 85 -34
26 c-18 15 -37 27 -42 27 -5 0 -47 -45 -92 -100 -46 -55 -87 -100 -91 -100 -4
0 -86 65 -183 145 -97 80 -180 145 -185 145 -10 0 -419 -472 -427 -493 -2 -7
9 -26 25 -41 l30 -29 53 59 c29 33 75 83 103 111 l50 53 82 -73 82 -72 1 -303
0 -302 -46 -29 c-62 -40 -133 -56 -239 -55 -104 1 -167 21 -264 84 l-61 40 0
560 0 560 -28 0 c-19 0 -39 -11 -63 -36 -73 -77 -179 -114 -325 -114 -98 0
-191 22 -373 91 -215 80 -308 98 -409 78z m1108 -1495 l0 -1237 -132 6 c-90 4
-157 12 -208 27 -82 23 -219 87 -263 123 l-29 23 94 71 c143 109 278 256 332
360 49 96 49 102 56 878 7 828 0 766 93 908 28 42 52 77 54 77 2 0 3 -556 3
-1236z m-296 1009 c-183 -256 -216 -327 -234 -495 -5 -51 -10 -316 -10 -589 0
-550 -6 -620 -60 -735 -17 -34 -50 -84 -74 -111 l-44 -48 -23 29 c-85 102
-172 283 -209 435 -45 180 -51 463 -15 650 61 315 224 592 471 802 78 66 280
208 296 209 4 0 -41 -66 -98 -147z m616 -869 c114 -24 220 -9 363 51 16 7 17
-7 17 -210 0 -170 -3 -216 -12 -212 -134 54 -174 68 -233 77 -38 6 -94 8 -124
4 -61 -7 -170 -38 -213 -60 l-28 -15 0 230 0 229 78 -39 c42 -22 111 -47 152
-55z m152 -399 c37 -7 103 -31 145 -52 l78 -38 3 -272 2 -271 -52 -46 c-153
-135 -367 -247 -516 -271 l-42 -7 2 439 3 438 75 38 c112 57 186 67 302 42z"/>
<path d="M13716 4080 c-68 -103 -178 -173 -298 -190 -96 -14 -277 7 -683 80
-355 63 -369 65 -580 64 -189 0 -205 -2 -290 -28 -317 -96 -526 -319 -645
-686 -55 -169 -55 -175 -19 -190 16 -7 31 -11 32 -9 1 2 15 31 31 64 69 147
185 292 290 365 58 39 142 78 209 96 68 19 226 28 300 17 l58 -8 -88 -71
c-166 -135 -328 -318 -426 -480 -80 -133 -149 -318 -182 -484 -25 -126 -30
-372 -11 -495 55 -362 245 -663 541 -860 310 -207 737 -247 1082 -103 268 111
518 347 652 616 34 68 95 243 106 303 6 34 5 37 -22 47 -28 9 -30 8 -54 -37
-52 -100 -165 -257 -238 -330 -119 -121 -259 -210 -403 -260 l-58 -20 0 1016
0 1015 58 -7 c144 -19 299 6 415 67 84 43 193 154 234 238 35 70 73 203 73
256 0 23 -6 37 -19 44 -30 16 -36 13 -65 -30z m-1436 -1162 c0 -403 -5 -796
-10 -872 -12 -165 -30 -215 -105 -290 l-49 -49 -59 63 c-121 128 -223 317
-266 490 -109 441 22 972 312 1258 58 57 152 130 170 131 4 1 7 -329 7 -731z
m510 632 c52 -11 105 -22 118 -25 l22 -5 0 -1029 0 -1028 -52 -7 c-196 -23
-371 8 -536 94 -53 28 -107 59 -120 68 l-23 18 140 132 c77 73 167 167 202
209 130 162 131 172 137 961 2 347 7 632 11 632 4 0 49 -9 101 -20z"/>
<path d="M31851 4048 c-9 -24 -107 -267 -216 -541 -110 -273 -202 -494 -206
-490 -3 5 -55 136 -114 293 -59 157 -125 325 -146 374 -81 186 -182 311 -294
362 -71 33 -188 43 -278 24 -159 -33 -310 -167 -411 -369 l-28 -53 28 -29 27
-28 56 50 c158 141 344 158 451 42 58 -62 116 -190 254 -557 64 -169 116 -310
116 -312 0 -2 -102 -5 -226 -6 l-226 -3 -64 -155 c-35 -85 -64 -158 -64 -162
0 -5 160 -8 355 -8 195 0 355 -2 355 -5 0 -10 -362 -910 -369 -918 -4 -4 -77
26 -162 66 -156 75 -268 123 -303 129 -16 2 -31 -25 -93 -177 -71 -172 -79
-205 -51 -205 25 0 205 -87 294 -143 50 -31 123 -81 161 -110 l70 -54 249 618
c137 340 252 615 255 611 3 -4 77 -196 164 -427 87 -231 178 -463 203 -515 54
-115 131 -197 238 -252 l70 -37 222 222 222 222 -38 43 -37 43 -76 -75 c-117
-115 -169 -114 -231 4 -15 30 -106 258 -202 505 l-174 450 227 3 227 2 67 158
c37 86 67 160 67 164 0 4 -168 9 -374 10 l-374 3 158 398 c87 219 160 401 163
403 3 3 58 -21 123 -54 66 -33 157 -74 204 -92 47 -18 91 -38 98 -43 8 -6 16
-6 21 -1 6 8 82 178 136 306 l15 37 -88 47 c-118 64 -282 166 -365 225 l-67
50 -19 -43z"/>
<path d="M34090 3557 c-117 -292 -216 -536 -220 -540 -4 -4 -57 126 -119 290
-211 559 -298 696 -480 753 -248 78 -500 -60 -649 -357 l-32 -62 30 -21 30
-21 61 49 c33 27 86 62 117 78 49 25 68 29 142 29 74 0 91 -3 130 -27 55 -32
99 -91 149 -201 38 -81 271 -691 271 -708 0 -5 -100 -9 -223 -9 l-223 0 -63
-152 c-35 -84 -65 -159 -68 -165 -4 -10 71 -13 355 -13 l360 0 -185 -462
c-102 -255 -186 -464 -188 -466 -1 -2 -63 26 -136 61 -150 72 -339 151 -345
144 -8 -7 -155 -369 -152 -372 2 -2 45 -21 96 -43 124 -54 245 -123 354 -205
50 -37 95 -64 99 -60 6 6 348 846 491 1203 8 22 31 -31 174 -410 91 -239 185
-477 210 -528 54 -112 127 -189 230 -244 l69 -37 224 218 c178 172 223 220
215 232 -5 9 -22 31 -37 49 l-28 33 -72 -70 c-78 -76 -103 -93 -139 -93 -27 0
-77 48 -101 95 -19 39 -367 935 -367 946 0 5 102 10 226 11 l226 3 68 160 68
160 -374 3 c-206 1 -374 5 -374 9 0 7 310 796 316 802 1 2 47 -19 102 -47 54
-28 153 -73 220 -101 111 -45 123 -48 132 -32 17 33 140 320 140 329 0 4 -26
20 -57 36 -88 43 -279 157 -364 218 -42 30 -81 58 -86 61 -7 4 -92 -196 -223
-526z"/>
<path d="M9405 4063 c-177 -38 -340 -131 -482 -275 -169 -171 -251 -317 -300
-533 -24 -107 -22 -318 5 -425 58 -236 197 -445 423 -636 l47 -39 -180 -285
c-98 -157 -204 -335 -235 -397 -51 -102 -57 -120 -61 -191 -5 -95 7 -139 53
-187 28 -30 39 -35 78 -35 69 0 92 24 92 97 0 45 -7 72 -32 124 -39 77 -42
125 -11 164 20 26 24 27 89 23 57 -4 87 -14 181 -61 125 -61 266 -151 433
-275 60 -45 112 -82 116 -82 4 0 151 127 325 282 175 154 319 277 320 272 2
-5 8 -63 13 -129 17 -190 36 -238 134 -334 116 -114 83 -125 329 104 117 109
217 202 222 206 5 4 -6 26 -24 49 -28 36 -35 39 -50 28 -9 -7 -36 -28 -60 -45
-72 -55 -128 -41 -150 38 -16 56 -29 265 -62 1044 -37 843 -39 998 -14 1098
20 85 37 117 89 175 41 44 156 137 180 145 15 5 -22 77 -40 77 -38 0 -168 -95
-279 -203 l-121 -117 -44 34 c-202 154 -440 264 -639 296 -92 14 -262 11 -345
-7z m303 -363 c61 -12 127 -35 188 -65 l95 -46 -26 -42 c-14 -23 -38 -64 -53
-90 -24 -42 -30 -47 -52 -41 -178 44 -321 50 -413 16 -116 -42 -208 -137 -278
-286 -21 -46 -39 -88 -39 -93 0 -10 43 -33 60 -33 5 0 33 25 62 56 109 115
224 139 353 74 37 -19 69 -40 72 -47 3 -6 -113 -199 -257 -427 l-262 -416 -31
22 c-107 77 -258 267 -311 396 -94 225 -81 481 35 679 43 73 178 208 252 252
176 104 388 136 605 91z m429 -227 l62 -58 17 -508 c9 -279 15 -509 12 -512
-3 -3 -201 -4 -441 -3 l-436 3 355 568 c196 312 359 567 362 567 4 0 35 -26
69 -57z m122 -1565 l-1 -173 -185 -158 -185 -159 -436 202 c-240 111 -441 205
-445 210 -5 4 27 62 70 129 l78 121 553 0 552 0 -1 -172z"/>
<path d="M6870 4024 c-36 -19 -101 -46 -145 -61 -71 -24 -95 -27 -215 -28
-128 0 -142 2 -285 42 -82 23 -171 44 -196 48 -58 8 -147 -8 -216 -40 -70 -32
-175 -132 -223 -215 -40 -68 -84 -186 -96 -257 -6 -37 -4 -41 19 -47 14 -3 32
-9 40 -12 11 -4 17 4 22 28 22 99 108 207 182 227 55 16 66 15 219 -25 158
-40 263 -46 377 -21 l68 15 -89 -92 c-177 -182 -230 -326 -258 -698 l-6 -78
-42 0 c-102 0 -261 -44 -324 -89 -48 -36 -105 -121 -137 -206 -14 -36 -25 -69
-25 -74 0 -4 12 -13 26 -20 24 -11 29 -8 71 39 65 72 131 104 213 104 160 -1
248 -118 274 -365 l6 -56 -58 -12 c-153 -30 -258 -159 -287 -353 -7 -45 -7
-46 25 -53 17 -4 33 -5 34 -3 2 1 16 27 32 56 37 70 75 102 122 102 89 0 137
-69 130 -185 -8 -127 -75 -240 -273 -459 -138 -153 -177 -212 -201 -307 -46
-178 49 -334 166 -274 57 30 63 118 15 209 -40 75 -42 116 -11 180 41 84 144
150 311 198 70 20 103 23 255 23 131 0 196 -5 260 -18 112 -24 302 -89 417
-142 l91 -43 185 292 c101 160 187 296 191 302 3 7 -10 24 -30 39 -35 27 -37
27 -47 9 -5 -10 -40 -49 -77 -86 -95 -95 -102 -96 -369 -75 -119 10 -272 18
-341 18 l-125 0 115 111 c166 159 261 232 375 288 263 128 465 143 722 52 l78
-27 -3 -60 c-9 -171 -95 -354 -310 -662 -145 -206 -164 -240 -197 -336 -69
-206 17 -376 191 -377 87 0 156 63 158 143 2 90 -56 134 -135 103 -53 -21 -85
-20 -109 4 -58 58 0 138 315 433 233 218 283 273 335 362 100 176 125 320 125
730 0 368 -20 525 -88 693 -49 123 -174 272 -337 403 l-85 69 -55 -53 c-30
-30 -152 -143 -270 -252 -118 -109 -239 -221 -268 -249 l-53 -51 3 335 c4 283
7 343 21 387 37 112 131 197 330 299 73 37 133 68 135 69 9 8 -23 85 -36 85
-26 0 -293 -110 -403 -166 -189 -97 -274 -175 -338 -314 -61 -132 -63 -154
-71 -850 -9 -672 -11 -702 -59 -831 -45 -120 -148 -245 -288 -352 -35 -27 -63
-46 -63 -42 0 3 20 46 45 96 53 104 77 168 101 259 15 57 18 157 24 795 8 802
8 809 71 944 49 107 191 229 395 342 l61 33 -14 43 c-8 24 -18 43 -21 42 -4
-1 -36 -16 -72 -35z m743 -942 c83 -67 141 -138 179 -218 32 -69 55 -162 45
-188 -4 -9 -44 -35 -90 -57 -64 -31 -102 -42 -172 -50 -158 -19 -344 6 -474
62 l-51 21 0 58 0 57 222 201 222 202 26 -17 c14 -9 55 -41 93 -71z m-279
-608 c160 -25 324 -7 444 47 l62 28 0 -235 c0 -129 -2 -234 -3 -234 -2 0 -30
9 -63 21 -106 37 -218 59 -296 59 -81 0 -235 -26 -353 -60 -38 -11 -71 -20
-72 -20 -2 0 -3 105 -3 234 l0 234 92 -30 c50 -16 136 -36 192 -44z"/>
<path d="M19421 4044 c-40 -29 -173 -81 -248 -98 -133 -30 -269 -19 -458 39
-145 44 -209 51 -297 31 -182 -41 -325 -197 -392 -430 -32 -108 -32 -112 -2
-120 13 -3 31 -8 39 -12 11 -4 19 9 32 51 24 75 65 138 115 174 66 48 106 48
276 6 165 -41 267 -47 382 -22 34 7 62 12 62 11 0 -1 -27 -29 -61 -61 -113
-108 -186 -222 -227 -355 -27 -86 -52 -266 -52 -368 l0 -80 -42 0 c-63 0 -165
-18 -236 -41 -75 -25 -155 -93 -195 -168 -26 -47 -70 -162 -65 -166 2 -1 14
-8 26 -14 22 -12 28 -8 75 42 87 92 178 123 280 93 41 -12 65 -27 96 -61 53
-57 77 -114 96 -223 23 -131 24 -127 -42 -142 -32 -7 -74 -20 -93 -30 -44 -23
-112 -95 -139 -149 -25 -49 -64 -203 -53 -213 4 -3 19 -10 33 -13 25 -6 30 -2
60 55 39 73 73 100 127 100 78 0 126 -65 125 -170 -1 -119 -78 -257 -249 -444
-54 -60 -114 -127 -132 -150 -119 -145 -141 -359 -47 -446 36 -34 104 -35 137
-2 35 34 33 129 -4 199 -32 60 -37 136 -14 182 37 70 168 151 313 193 69 20
100 23 263 23 160 0 198 -4 280 -24 124 -31 274 -83 379 -132 46 -21 89 -39
96 -39 6 0 96 134 200 297 l188 297 -34 28 -34 29 -30 -38 c-51 -67 -115 -121
-162 -139 -42 -16 -58 -17 -212 -4 -91 7 -247 16 -346 19 l-180 6 135 124
c213 196 277 241 437 307 229 95 431 97 668 7 l50 -19 -2 -67 c-2 -43 -13 -99
-32 -157 -53 -157 -122 -280 -300 -530 -208 -294 -248 -454 -150 -596 92 -135
311 -101 326 49 9 92 -58 149 -133 114 -68 -33 -134 -10 -134 47 0 47 82 146
263 318 376 356 417 405 471 565 52 152 61 240 61 598 0 275 -3 348 -18 439
-41 243 -106 373 -267 534 -73 74 -204 182 -219 182 -6 0 -153 -133 -328 -295
l-318 -295 -3 283 c-3 308 5 391 44 477 43 94 120 157 319 261 66 34 122 64
124 66 10 7 -21 83 -34 83 -21 0 -226 -81 -340 -134 -144 -68 -235 -127 -303
-200 -74 -80 -116 -164 -144 -286 -19 -89 -21 -137 -28 -730 -8 -676 -9 -691
-60 -820 -33 -84 -103 -182 -184 -257 -73 -68 -172 -145 -165 -127 2 5 23 45
45 89 23 44 53 113 68 153 53 149 56 193 56 851 0 333 5 657 10 720 18 204 60
311 159 410 57 57 207 162 309 216 55 30 55 29 31 93 -10 26 -17 27 -48 6z
m666 -930 c148 -114 228 -228 258 -369 17 -82 21 -77 -90 -130 -155 -75 -426
-71 -629 11 l-67 26 3 59 3 59 220 199 c121 110 222 200 224 201 3 0 38 -25
78 -56z m-422 -598 c129 -40 193 -50 320 -49 143 0 218 13 302 53 l63 29 0
-235 c0 -128 -1 -234 -3 -234 -2 0 -35 11 -75 24 -203 69 -331 72 -567 12 -77
-20 -141 -36 -142 -36 -2 0 -3 106 -3 236 0 185 3 235 13 230 6 -2 48 -16 92
-30z"/>
<path d="M22170 3724 l-375 -334 -5 -592 -5 -593 -26 -56 c-25 -53 -92 -139
-109 -139 -11 0 -105 188 -133 266 -57 161 -72 261 -71 489 0 194 2 217 27
308 72 267 241 510 491 705 29 23 29 23 13 58 -20 41 -14 44 -165 -59 -382
-259 -612 -601 -677 -1007 -19 -123 -20 -384 0 -515 56 -372 230 -694 491
-913 192 -161 376 -239 618 -261 466 -44 873 190 1165 671 46 76 46 76 26 102
-13 17 -17 16 -72 -27 -271 -208 -531 -315 -812 -333 l-101 -7 0 638 0 638
233 -7 c127 -3 270 -9 317 -12 l85 -6 103 200 c56 110 102 202 102 206 0 3
-66 7 -147 7 -82 1 -180 4 -220 8 l-72 6 269 303 c266 301 268 303 258 335
l-10 32 -106 1 c-169 2 -356 56 -584 170 -59 30 -113 54 -120 53 -7 0 -182
-151 -388 -335z m185 -2212 c-8 -9 -116 18 -195 49 -118 45 -234 123 -336 223
-50 50 -99 103 -108 117 l-17 27 58 54 c32 30 101 94 154 142 53 48 115 109
138 136 110 130 110 135 112 775 l1 520 96 86 97 87 3 -1106 c1 -608 0 -1107
-3 -1110z m217 2109 c119 -62 235 -106 355 -136 l72 -17 -246 -276 c-135 -153
-259 -290 -275 -307 l-28 -30 0 413 c0 226 2 412 4 412 2 0 55 -27 118 -59z"/>
</g>
</svg>
